<svg xmlns="http://www.w3.org/2000/svg" xmlns:xlink="http://www.w3.org/1999/xlink" viewBox="0 0 347.07 111.21"><defs><style>.a{fill:url(#a);}.b{fill:url(#b);}.c{fill:url(#i);}</style><linearGradient id="a" x1="73.27" y1="27.02" x2="3.5" y2="96.79" gradientUnits="userSpaceOnUse"><stop offset="0" stop-color="#a33bff"/><stop offset="1" stop-color="#3f66ff"/></linearGradient><linearGradient id="b" x1="303.6" y1="-41.71" x2="132.07" y2="129.82" xlink:href="#a"/><linearGradient id="i" x1="80.07" y1="100.55" x2="356.51" y2="100.55" xlink:href="#a"/></defs><path class="a" d="M45.71,118c9.21-.71,20.38-11.48,19.53-18.17C63.81,88.83,59,90.69,59,82.61S67.65,61.8,69.7,59.85s1.78-1.71-.67-3.06-6,.41-6,.41l-2.67,1.1s-.36-1.88-.87-5.15-4.66-8.94-4.66-8.94,6.88.68,7.79-1.57A2.75,2.75,0,0,0,62,39.26V36.91l-1,.51-1.75.1-.4-1.13a4.28,4.28,0,0,1-2.36.93c-1.23,0-5.51-.48-6.3-2-1.8-3.59-.84-4.44,2.33-5.8,4.82-2.08,8.77,2.06,8.77,2.06l.4,1.33a3,3,0,0,1,1.85-.9,3.58,3.58,0,0,1,1.78.21s.8-.09,1.62-2.15a7.27,7.27,0,0,0,.41-4,6.65,6.65,0,0,1,.41-2.65c.41-1.34-.52-2.88-2.26-3.8s-7-1.33-7-1.33a2,2,0,0,0-.2-1.63c-.52-.95-1.43-1.65-4.1-2.78s-2.77-4.21-8.6-6.45S28.19,9.84,28.19,9.84a4.7,4.7,0,0,0-2.67-.51c-1.44.23-4.1-.51-4.4-.29s1,3.68,1,3.68A13.09,13.09,0,0,0,18.76,16c-1.53,2.14-3.46,7.08-3.68,12.29a31.24,31.24,0,0,1-2.25,10.35c-.41.92,4.73-.73,4.73-.73s-.43,1.55-1.45,5.86S12.52,56,11.9,57.7s5-.72,5-.72-.51,2.65-2,7.75c-1.4,4.8-4.95,9.19-5.45,10.73s6,2.23,6,2.23S7.34,88.49,11.45,101c4.86,14.75,20.09,17,20.09,17M66.42,21.42c.71.74.5,2.06.19,2.88s-2.14-3.15-2.14-3.15C65.3,20.09,65.7,20.72,66.42,21.42ZM48.89,18.76a4.62,4.62,0,0,1,3.48-.4C54.53,18.87,54,19.7,54,19.7a12.86,12.86,0,0,1-2.66.39,7.65,7.65,0,0,1-3.48-.91ZM34.77,14.15s-5.22,15,.44,30.07c4.68,12.4,14.68,25.19,14.68,25.19s-15.21-4-21.54-23C23.35,31.43,34.77,14.15,34.77,14.15Zm12.35,92.52,6.69-38.9A34.79,34.79,0,0,0,47.51,53C32,32.52,39.16,17.74,39.16,17.74a36,36,0,0,0,.4,7c.63,4.1,1.22,9.42,6.48,14.68A29.46,29.46,0,0,1,53.81,67.77Z" transform="translate(-9.45 -6.79)"/><path class="b" d="M119.35,8.56h8.15v71H119V25.79l.83,3.13-12.21,39h-6l-12.15-38,1.12-4.1V79.55H81.8v-71h8.5l14.35,44.58Z" transform="translate(-9.45 -6.79)"/><path class="b" d="M149.28,8.56h8.5l16.4,71h-10L153.53,23.11,142.84,79.55h-10Zm-5.91,46.77h21v8.74h-21Z" transform="translate(-9.45 -6.79)"/><path class="b" d="M184.24,78.14a14,14,0,0,1-5.66-6.23,22.52,22.52,0,0,1-2-9.79V26a22.66,22.66,0,0,1,2-9.84A14,14,0,0,1,184.22,10a19.6,19.6,0,0,1,17.85,0,13.85,13.85,0,0,1,5.64,6.23A22.82,22.82,0,0,1,209.63,26v3h-9.37V26a13.17,13.17,0,0,0-.83-4.93A6.63,6.63,0,0,0,197,17.93a6.78,6.78,0,0,0-3.86-1.07,6.61,6.61,0,0,0-3.83,1.07,6.75,6.75,0,0,0-2.44,3.13,12.88,12.88,0,0,0-.86,5V62.12a12.79,12.79,0,0,0,.86,4.93,6.35,6.35,0,0,0,6.27,4.2A6.85,6.85,0,0,0,197,70.18a6.63,6.63,0,0,0,2.44-3.13,13.21,13.21,0,0,0,.83-4.93v-3h9.37v3a22.82,22.82,0,0,1-1.92,9.79,13.9,13.9,0,0,1-5.64,6.23,19.64,19.64,0,0,1-17.83,0Z" transform="translate(-9.45 -6.79)"/><path class="b" d="M217.45,8.56h9.32v71h-9.32Zm6.2,31.64h21.77V49H223.65ZM240.88,8.56h9.28v71h-9.28Z" transform="translate(-9.45 -6.79)"/><path class="b" d="M269.11,79.55h-9.28v-71h9.28Z" transform="translate(-9.45 -6.79)"/><path class="b" d="M278.77,8.56h8.11L306.31,63l-1.51,1.27V8.56h8.84V79.5h-8.21L286.1,26.77l1.51-1.27v54h-8.84Z" transform="translate(-9.45 -6.79)"/><path class="b" d="M323.4,8.56h9.28v71H323.4Zm4.84,0h25.63v8.78H328.24Zm0,31.34h23.19v8.79H328.24Zm0,30.86h25.63v8.79H328.24Z" transform="translate(-9.45 -6.79)"/><path class="c" d="M80.07,86.67H84v27.75H80.07Zm1.94,24H97.89v3.7H82Z" transform="translate(-9.45 -6.79)"/><path class="c" d="M106.38,86.67h3.9v27.75h-3.9Zm1.9,0h15.93v3.7H108.28Zm0,12.12h13.83v3.7H108.28Zm0,11.93h15.93v3.7H108.28Z" transform="translate(-9.45 -6.79)"/><path class="c" d="M141.22,86.67h3.32l10.23,27.75h-4.2L142.88,92l-7.69,22.39H131Zm-5.52,18h14.6v3.7H135.7Z" transform="translate(-9.45 -6.79)"/><path class="c" d="M162.88,86.65h3.9v27.77h-3.9ZM164.58,99h9.47a3.66,3.66,0,0,0,2-.53,3.52,3.52,0,0,0,1.33-1.52,5.25,5.25,0,0,0,.47-2.26,5.18,5.18,0,0,0-.47-2.26A3.45,3.45,0,0,0,176,90.89a3.57,3.57,0,0,0-2-.54h-9.47v-3.7h9.32a8.68,8.68,0,0,1,4.22,1A6.93,6.93,0,0,1,181,90.46a9.32,9.32,0,0,1,0,8.42,7,7,0,0,1-2.84,2.81,8.63,8.63,0,0,1-4.2,1h-9.32Zm7.56,2.85L176,101l7.11,13.47H178.5Z" transform="translate(-9.45 -6.79)"/><path class="c" d="M192.27,86.67h3.54l13.57,21.46-.46.49v-22h3.86v27.74h-3.57L195.67,93.27l.46-.49v21.63h-3.86Z" transform="translate(-9.45 -6.79)"/><path class="c" d="M227.45,114.42h-3.89V86.67h3.89Z" transform="translate(-9.45 -6.79)"/><path class="c" d="M238.23,86.67h3.53l13.58,21.46-.46.49v-22h3.85v27.74h-3.57L241.63,93.27l.46-.49v21.63h-3.86Z" transform="translate(-9.45 -6.79)"/><path class="c" d="M288.49,99.48v4.85a11.88,11.88,0,0,1-1.2,5.45,8.69,8.69,0,0,1-3.41,3.64,9.92,9.92,0,0,1-5.11,1.29,10.58,10.58,0,0,1-5.16-1.21,8.56,8.56,0,0,1-3.45-3.43,10.49,10.49,0,0,1-1.22-5.13V96.75a11.66,11.66,0,0,1,1.21-5.44,8.67,8.67,0,0,1,3.4-3.64,9.92,9.92,0,0,1,5.11-1.29,9.59,9.59,0,0,1,4.4,1,9.38,9.38,0,0,1,3.37,2.9,10.8,10.8,0,0,1,1.83,4.33H284a6.11,6.11,0,0,0-1.16-2.4A5.64,5.64,0,0,0,281,90.71a5.29,5.29,0,0,0-2.29-.53,5.6,5.6,0,0,0-3,.82,5.48,5.48,0,0,0-2,2.3,8,8,0,0,0-.71,3.45v8.19a6.47,6.47,0,0,0,.73,3.14,5.22,5.22,0,0,0,2,2.09,6.21,6.21,0,0,0,3.06.74,5.85,5.85,0,0,0,3-.77,5.14,5.14,0,0,0,2-2.24,8,8,0,0,0,.71-3.5v-1.2h-5.63V99.48Z" transform="translate(-9.45 -6.79)"/><path class="c" d="M297.9,110.82h3.59v3.6H297.9Z" transform="translate(-9.45 -6.79)"/><path class="c" d="M314.86,114.33a14.72,14.72,0,0,1-3.35-1.15,14,14,0,0,1-2.91-1.91l2-2.57a11.34,11.34,0,0,0,3.67,2.17,12.57,12.57,0,0,0,4.35.73,8.85,8.85,0,0,0,5.11-1.26,4.1,4.1,0,0,0,1.8-3.57v0a3.5,3.5,0,0,0-.8-2.42A4.91,4.91,0,0,0,322.7,103a21.46,21.46,0,0,0-3.28-.81l-.12,0a.42.42,0,0,1-.12,0l-.42-.07a33.41,33.41,0,0,1-4.62-1.12,6.53,6.53,0,0,1-3-2.12,6.6,6.6,0,0,1-1.23-4.27v0a8.08,8.08,0,0,1,1.15-4.4,7.27,7.27,0,0,1,3.37-2.77,13.36,13.36,0,0,1,5.33-1,13,13,0,0,1,2.91.33,14.4,14.4,0,0,1,2.84,1,18,18,0,0,1,2.78,1.61l-1.91,2.62a14.24,14.24,0,0,0-3.34-1.8,9.28,9.28,0,0,0-3.28-.61,8,8,0,0,0-4.85,1.28,4.25,4.25,0,0,0-1.72,3.63v0a3.2,3.2,0,0,0,.87,2.37,5.27,5.27,0,0,0,2.17,1.27,28.62,28.62,0,0,0,3.59.86l.15,0,.15,0,.22,0,.22,0a24.36,24.36,0,0,1,4.28,1.23,6.65,6.65,0,0,1,2.86,2.21,6.72,6.72,0,0,1,1.15,4.12v0a7.69,7.69,0,0,1-1.21,4.35,7.5,7.5,0,0,1-3.48,2.75,14.4,14.4,0,0,1-5.51.94A18.62,18.62,0,0,1,314.86,114.33Z" transform="translate(-9.45 -6.79)"/><path class="c" d="M356.51,99.86v4.47a12.86,12.86,0,0,1-1.13,5.62,7.91,7.91,0,0,1-3.33,3.55,10.65,10.65,0,0,1-5.26,1.21,11.44,11.44,0,0,1-5.31-1.14,7.77,7.77,0,0,1-3.36-3.35,11.19,11.19,0,0,1-1.16-5.28V96.75a12.64,12.64,0,0,1,1.14-5.61,7.88,7.88,0,0,1,3.32-3.55,10.79,10.79,0,0,1,5.26-1.21,10.11,10.11,0,0,1,4.52,1,8.39,8.39,0,0,1,3.28,2.81,11.67,11.67,0,0,1,1.8,4.47h-3.59a7.49,7.49,0,0,0-1.28-2.79,5.71,5.71,0,0,0-2.06-1.71,6.15,6.15,0,0,0-2.67-.58,6.59,6.59,0,0,0-3.45.85,5.5,5.5,0,0,0-2.16,2.45,9.17,9.17,0,0,0-.75,3.9v8.19a7.71,7.71,0,0,0,.76,3.59,5.17,5.17,0,0,0,2.2,2.24,7.46,7.46,0,0,0,3.51.77,6.81,6.81,0,0,0,3.42-.8,5.12,5.12,0,0,0,2.13-2.4,9.42,9.42,0,0,0,.74-4V103h-6.19V99.86Z" transform="translate(-9.45 -6.79)"/></svg>