<?xml version="1.0" standalone="no"?>
<!DOCTYPE svg PUBLIC "-//W3C//DTD SVG 20010904//EN"
 "http://www.w3.org/TR/2001/REC-SVG-20010904/DTD/svg10.dtd">
<svg version="1.0" xmlns="http://www.w3.org/2000/svg"
 width="944.000000pt" height="944.000000pt" viewBox="0 0 944.000000 944.000000"
 preserveAspectRatio="xMidYMid meet">
<metadata>
Created by potrace 1.11, written by Peter Selinger 2001-2013
</metadata>
<g transform="translate(0.000000,944.000000) scale(0.100000,-0.100000)"
fill="#000000" stroke="none">
<path d="M4398 9244 c-6 -5 -48 -11 -138 -18 -36 -3 -81 -8 -100 -10 -19 -3
-51 -7 -70 -10 -19 -3 -55 -8 -80 -11 -25 -3 -78 -12 -118 -20 -40 -8 -76 -14
-80 -14 -4 1 -9 0 -12 -1 -9 -3 -44 -11 -67 -15 -11 -1 -31 -6 -43 -10 -12 -4
-32 -8 -43 -10 -12 -2 -49 -11 -82 -19 -33 -9 -67 -18 -75 -20 -8 -2 -35 -10
-60 -17 -25 -7 -49 -13 -55 -15 -5 -1 -48 -14 -95 -30 -47 -15 -88 -27 -92
-26 -5 1 -8 -3 -8 -10 0 -6 -3 -9 -6 -5 -4 3 -23 -1 -43 -9 -20 -9 -43 -17
-51 -19 -24 -5 -228 -90 -305 -126 -38 -18 -72 -34 -75 -34 -47 -11 -515 -274
-532 -299 -4 -6 -8 -7 -8 -3 0 4 -6 3 -12 -3 -7 -6 -71 -52 -143 -102 -71 -51
-131 -95 -133 -100 -2 -4 -10 -8 -17 -8 -8 0 -18 -6 -22 -12 -4 -7 -28 -29
-53 -47 -25 -19 -54 -43 -65 -53 -11 -10 -30 -26 -41 -35 -106 -88 -159 -137
-289 -268 -137 -137 -213 -220 -291 -315 -16 -19 -33 -40 -39 -46 -10 -11 -17
-20 -102 -133 -24 -31 -46 -60 -51 -66 -96 -121 -297 -453 -403 -665 -65 -130
-178 -388 -185 -420 0 -3 -6 -18 -13 -35 -17 -38 -51 -135 -56 -155 -2 -8 -9
-28 -15 -45 -6 -16 -13 -37 -15 -45 -3 -8 -11 -40 -20 -70 -28 -95 -75 -274
-81 -309 -5 -32 -7 -42 -19 -93 -3 -13 -7 -36 -10 -53 -3 -16 -8 -41 -10 -55
-14 -69 -22 -115 -31 -188 -2 -20 -7 -53 -9 -72 -3 -19 -6 -54 -7 -77 -2 -24
-5 -43 -8 -43 -8 0 -14 -170 -14 -445 -1 -238 3 -332 21 -500 3 -33 6 -75 7
-92 1 -18 3 -33 6 -33 3 0 6 -15 7 -34 2 -31 34 -222 48 -286 3 -14 8 -36 10
-50 4 -28 82 -337 91 -360 3 -8 6 -17 6 -20 1 -3 12 -36 25 -75 14 -38 26 -74
27 -80 2 -5 6 -17 9 -25 3 -8 13 -37 22 -64 15 -48 42 -116 71 -183 8 -17 14
-33 14 -36 0 -7 88 -194 146 -310 44 -89 51 -103 84 -157 8 -14 13 -28 12 -32
-1 -5 2 -8 8 -8 5 0 10 -5 10 -11 0 -14 169 -282 184 -291 6 -4 7 -8 3 -8 -4
0 -3 -6 3 -13 17 -19 107 -144 117 -160 14 -24 141 -182 232 -287 68 -79 343
-356 426 -427 33 -29 67 -58 75 -65 8 -7 53 -44 100 -81 47 -37 92 -73 100
-80 42 -35 228 -163 325 -224 186 -118 336 -199 553 -299 42 -19 85 -40 94
-45 35 -18 39 -8 11 29 -113 145 -215 341 -281 540 -23 67 -44 132 -46 145 -2
12 -11 58 -20 102 -8 44 -18 98 -21 120 -11 73 -15 359 -5 435 17 139 20 165
27 185 3 11 7 31 8 45 3 28 39 162 54 203 6 15 8 27 5 27 -4 0 -1 7 6 15 7 8
9 15 6 15 -4 0 -1 10 6 23 6 12 13 28 14 35 1 8 10 30 19 49 10 20 18 41 20
47 4 20 23 63 68 153 69 137 91 178 100 181 4 2 7 8 7 13 0 6 5 15 10 22 6 7
21 29 35 49 l24 38 -22 5 c-12 2 -67 12 -122 21 -185 29 -327 83 -339 128 -6
23 32 109 82 186 126 192 292 506 317 600 1 3 5 13 8 23 16 40 20 53 22 62 2
6 11 37 21 70 10 33 19 65 20 70 1 6 14 53 29 105 14 52 27 102 30 110 8 33
26 106 30 125 17 73 24 106 31 143 l7 34 -29 -15 c-32 -16 -205 -76 -238 -83
-60 -12 -108 -14 -126 -4 -11 6 -18 14 -16 19 3 4 7 18 10 32 3 13 31 98 61
189 31 91 58 174 60 185 3 11 9 31 14 45 5 14 24 72 41 130 17 58 34 114 38
125 3 11 7 23 8 28 1 4 2 8 4 10 1 1 3 9 5 17 2 8 13 49 25 90 11 41 23 82 25
90 13 43 78 298 82 320 2 14 7 32 10 40 4 8 5 18 5 22 -1 4 4 27 12 50 11 37
31 115 40 160 2 7 6 20 9 28 3 8 7 25 10 36 5 22 -4 22 -83 -1 -122 -35 -195
-51 -240 -50 -61 0 -62 3 -35 70 9 19 15 36 14 37 0 2 6 21 14 43 31 83 79
260 91 335 3 19 8 46 11 60 3 14 7 45 10 70 3 25 7 54 9 66 2 11 7 70 11 130
9 154 23 284 39 349 2 6 6 33 11 60 4 28 10 55 13 60 4 6 7 15 8 20 14 87 94
304 152 415 19 36 39 75 46 87 6 13 14 23 19 23 4 0 7 5 7 11 0 14 54 80 111
138 41 41 74 70 148 128 22 18 23 21 8 49 -8 16 -25 61 -37 99 -22 71 -26 87
-35 138 l-6 29 63 -6 c35 -3 89 -10 121 -14 32 -5 110 -8 173 -7 63 1 114 -1
114 -5 0 -4 7 -7 15 -7 8 0 33 -6 56 -13 36 -12 46 -12 87 4 26 10 52 19 59
20 7 1 16 5 19 9 4 4 16 7 26 7 10 0 18 4 18 8 0 4 9 8 19 9 16 1 146 40 201
60 8 3 22 7 30 8 8 1 51 12 95 23 44 12 92 23 107 26 15 2 63 12 105 20 124
24 158 28 338 31 145 3 182 1 255 -17 47 -11 87 -24 90 -27 3 -4 25 -13 49
-21 114 -37 288 -158 396 -277 121 -133 179 -187 230 -213 27 -14 51 -25 54
-25 3 0 44 -19 91 -43 152 -76 233 -168 227 -259 -2 -40 -1 -43 23 -43 48 -1
249 -28 335 -45 14 -3 37 -7 53 -10 48 -10 126 -38 157 -57 17 -10 37 -21 45
-25 31 -14 93 -90 115 -139 27 -58 26 -91 -3 -202 -10 -40 -18 -94 -16 -120 4
-83 5 -227 1 -242 -36 -140 -95 -247 -155 -279 -13 -7 -22 -7 -30 1 -6 6 -41
11 -79 11 -54 0 -81 -5 -126 -26 -31 -14 -57 -32 -57 -38 0 -19 -20 3 -24 27
-9 42 -28 79 -54 101 -38 33 -128 93 -140 93 -6 0 -12 3 -14 8 -5 13 -130 60
-195 72 -54 11 -147 10 -229 -3 -62 -9 -259 -106 -303 -149 -19 -18 -40 -46
-46 -63 -23 -54 -4 -159 48 -265 19 -40 59 -81 98 -100 44 -23 150 -57 204
-66 22 -3 51 -8 65 -10 21 -4 111 -13 145 -15 35 -2 103 17 150 42 l54 29 19
-44 19 -43 69 4 c41 3 84 12 107 23 20 11 38 19 38 17 1 -1 2 -43 3 -92 1 -80
4 -94 27 -125 37 -49 50 -98 44 -159 -6 -58 -27 -106 -59 -134 -23 -21 -80
-47 -111 -53 -11 -2 -38 -8 -60 -14 -22 -7 -123 -13 -225 -14 -102 -2 -184 -6
-183 -10 2 -3 25 -39 51 -79 104 -153 242 -394 243 -424 1 -5 7 -19 14 -33 18
-32 55 -138 53 -148 -1 -4 1 -20 5 -37 3 -16 9 -52 13 -80 3 -27 7 -57 9 -65
1 -8 4 -28 8 -45 3 -16 8 -46 11 -65 3 -19 10 -59 16 -89 5 -29 10 -55 10 -57
0 -3 32 10 105 41 113 48 206 84 235 90 3 1 32 7 65 15 74 16 105 18 105 7 0
-5 6 -5 13 0 6 6 21 9 32 6 11 -2 36 -6 55 -8 37 -5 207 -86 238 -114 10 -9
17 -22 16 -28 -1 -7 -2 -18 -3 -23 0 -6 -32 -42 -70 -79 -83 -83 -156 -174
-242 -301 -35 -52 -67 -97 -71 -98 -5 -2 -8 -7 -8 -12 0 -5 -17 -35 -38 -67
-45 -68 -85 -134 -109 -183 -10 -19 -24 -41 -30 -48 -7 -7 -13 -20 -13 -28 0
-8 -3 -14 -8 -14 -4 0 -14 -15 -21 -32 -8 -18 -30 -59 -47 -91 -18 -31 -33
-60 -34 -62 0 -3 -18 -41 -40 -85 -21 -44 -39 -83 -40 -85 0 -3 -9 -25 -20
-51 -11 -25 -20 -49 -20 -52 -1 -4 -9 -25 -20 -47 -10 -22 -16 -43 -14 -47 3
-5 0 -8 -5 -8 -6 0 -10 -3 -9 -7 0 -5 -1 -15 -5 -23 -31 -80 -73 -237 -92
-345 -21 -115 -21 -303 0 -395 3 -14 7 -37 10 -52 3 -15 9 -38 14 -51 6 -14 7
-28 4 -31 -4 -3 -1 -6 5 -6 7 0 12 -6 12 -12 0 -23 80 -168 93 -168 4 0 7 -7
7 -15 0 -8 5 -15 10 -15 6 0 10 -7 10 -15 0 -8 5 -15 10 -15 6 0 10 -4 10 -10
0 -9 19 -35 48 -65 6 -8 12 -18 12 -23 0 -6 3 -12 8 -14 17 -7 102 -171 137
-265 23 -61 67 -218 78 -283 3 -14 8 -42 12 -62 4 -20 8 -52 9 -70 1 -19 5
-39 9 -45 4 -5 4 -13 1 -16 -3 -3 -7 -32 -9 -64 -5 -97 -34 -191 -99 -313 -21
-41 -44 -85 -50 -97 -6 -13 -14 -23 -18 -23 -5 0 -8 -7 -8 -15 0 -8 -4 -15 -8
-15 -7 0 -42 -52 -42 -63 0 -3 14 0 30 6 17 6 30 15 30 19 0 4 6 8 14 8 17 0
139 62 144 73 2 4 12 7 23 7 10 0 19 4 19 8 0 5 17 16 38 25 38 17 70 36 211
122 45 28 91 54 102 60 10 5 19 13 19 17 0 5 5 8 10 8 6 0 16 5 23 10 7 6 57
43 112 82 86 61 280 210 295 228 3 3 21 18 40 34 89 72 285 262 402 390 21 23
48 52 61 66 30 33 181 219 239 295 64 84 218 314 218 326 0 5 5 9 10 9 6 0 10
4 10 9 0 5 22 46 50 90 27 45 46 81 42 81 -4 0 -2 4 4 8 12 8 19 20 115 214
90 179 184 408 243 588 26 80 50 152 53 160 4 8 7 22 8 30 1 8 5 22 8 30 7 17
47 173 53 210 3 14 9 41 14 60 9 35 20 91 25 120 1 8 5 29 8 45 4 17 9 45 12
63 3 17 7 44 10 60 4 26 9 61 21 162 24 196 29 290 29 555 0 238 -5 353 -21
490 -3 28 -7 68 -9 90 -2 22 -6 51 -9 64 -3 13 -8 49 -11 79 -3 30 -7 57 -9
61 -3 3 -7 27 -11 51 -4 25 -13 77 -22 115 -8 39 -17 82 -19 97 -3 14 -18 75
-35 135 -16 59 -31 117 -33 128 -6 30 -104 326 -120 360 -8 17 -18 42 -21 58
-4 15 -11 30 -16 33 -5 3 -7 10 -4 15 4 5 2 9 -3 9 -5 0 -9 6 -9 13 0 6 -11
35 -23 62 -13 28 -24 52 -25 55 -14 41 -192 397 -205 410 -3 3 -14 21 -24 40
-11 19 -46 78 -79 130 -33 52 -64 104 -71 115 -6 11 -14 22 -17 25 -3 3 -30
41 -59 85 -30 44 -57 82 -60 85 -3 3 -25 32 -50 65 -43 57 -64 85 -85 109 -6
6 -23 27 -39 46 -113 137 -403 436 -510 525 -27 22 -58 48 -70 58 -11 11 -39
33 -60 50 -22 18 -50 42 -63 54 -13 12 -23 19 -23 15 0 -4 -4 -2 -8 4 -9 13
-185 143 -229 169 -18 11 -33 24 -33 29 0 5 -3 7 -6 3 -3 -3 -16 3 -27 14 -12
11 -32 22 -44 25 -13 4 -23 10 -23 14 0 16 -334 202 -520 289 -162 75 -181 83
-305 130 -60 24 -119 46 -130 50 -29 12 -147 51 -170 56 -11 3 -65 18 -120 35
-55 16 -111 31 -125 34 -14 2 -43 8 -65 14 -54 15 -124 31 -160 37 -16 3 -39
8 -50 10 -11 2 -47 8 -80 14 -33 5 -78 13 -100 17 -22 3 -55 7 -72 8 -18 0
-33 3 -33 6 0 3 -15 5 -33 6 -17 1 -59 4 -92 9 -139 18 -667 29 -728 15 -19
-4 -41 -4 -49 1 -8 5 -17 6 -20 3z"/>
<path d="M4405 7743 c-14 -27 -40 -75 -58 -108 -18 -33 -34 -62 -37 -65 -10
-9 -130 -258 -130 -269 0 -6 -4 -11 -10 -11 -5 0 -10 -7 -10 -15 0 -14 -10
-39 -55 -140 -11 -26 -24 -57 -30 -75 -1 -3 -4 -12 -8 -20 -3 -8 -15 -42 -27
-75 -11 -33 -23 -67 -27 -75 -3 -8 -7 -20 -8 -26 -2 -6 -17 -56 -34 -112 -18
-56 -34 -110 -36 -121 -3 -12 -8 -31 -11 -43 -3 -13 -7 -30 -8 -38 -1 -9 -5
-21 -10 -28 -4 -6 -5 -12 -3 -12 2 0 -2 -26 -10 -57 -7 -32 -16 -78 -19 -102
-2 -24 -7 -47 -9 -51 -7 -11 -19 -125 -19 -182 -1 -27 -3 -48 -6 -48 -10 0
-13 -242 -5 -370 5 -68 10 -118 20 -179 3 -20 8 -49 11 -66 2 -16 15 -73 29
-125 14 -52 27 -102 29 -110 7 -25 66 -180 103 -270 52 -125 152 -323 213
-420 51 -83 178 -270 189 -280 3 -3 24 -27 46 -55 22 -27 51 -63 65 -80 38
-46 262 -266 304 -300 21 -16 46 -37 55 -45 9 -8 26 -22 38 -30 231 -165 253
-178 410 -261 93 -49 286 -129 310 -129 13 0 -41 80 -59 88 -5 2 -8 8 -8 13 0
5 -21 37 -47 71 -96 126 -433 630 -433 647 0 6 -4 11 -10 11 -5 0 -10 5 -10
10 0 12 -52 94 -62 98 -5 2 -8 8 -8 14 0 5 -16 37 -36 71 -20 34 -48 82 -62
107 -13 25 -28 50 -32 55 -4 6 -28 48 -52 95 -116 218 -157 300 -150 300 4 0
3 4 -3 8 -19 13 -166 348 -157 356 3 3 0 6 -6 6 -7 0 -12 6 -12 13 0 8 -12 42
-26 77 -14 35 -26 72 -27 82 -1 10 -5 18 -9 18 -4 0 -7 3 -6 8 1 4 -5 30 -14
57 -9 28 -26 88 -38 135 -11 47 -23 92 -27 100 -3 8 -7 26 -9 40 -1 14 -12 73
-23 131 -21 111 -28 162 -37 264 -3 33 -8 78 -10 100 -7 69 -7 486 0 575 12
154 15 185 16 185 1 0 4 16 6 35 5 59 13 114 18 140 3 14 7 41 10 60 6 36 11
66 21 113 3 15 7 39 10 55 10 53 28 127 40 167 7 22 16 56 20 75 4 19 12 41
17 48 7 8 7 12 -1 12 -6 0 -22 -21 -36 -47z"/>
<path d="M4791 7481 c-7 -16 -13 -35 -14 -42 -2 -8 -6 -19 -10 -25 -7 -12 -35
-112 -43 -154 -2 -14 -7 -38 -11 -55 -4 -16 -7 -37 -8 -45 -1 -8 -5 -42 -10
-74 -4 -33 -9 -72 -10 -88 -2 -16 -5 -32 -8 -35 -4 -3 -2 -14 3 -24 6 -10 7
-20 2 -23 -14 -8 -4 -347 13 -461 3 -16 8 -55 11 -85 3 -30 8 -58 10 -61 2 -4
6 -23 9 -43 4 -19 17 -79 31 -133 13 -54 26 -107 29 -119 3 -12 12 -40 20 -64
8 -23 12 -46 9 -51 -3 -5 0 -9 5 -9 6 0 11 -8 11 -17 0 -10 7 -31 15 -47 8
-15 15 -33 15 -39 0 -34 172 -408 253 -552 19 -33 44 -78 56 -100 13 -22 28
-47 35 -55 6 -8 20 -31 30 -50 11 -19 22 -37 25 -40 4 -3 27 -36 51 -75 25
-38 48 -74 53 -80 44 -57 172 -235 207 -290 25 -39 48 -71 52 -73 5 -2 8 -7 8
-11 0 -4 27 -56 60 -115 33 -59 60 -110 60 -112 0 -2 15 -37 34 -77 19 -40 38
-85 41 -100 4 -15 11 -30 16 -33 5 -3 9 -14 9 -25 0 -10 4 -19 10 -19 5 0 9
-3 8 -7 -3 -8 16 -75 32 -118 20 -53 80 -287 85 -330 1 -11 3 -24 4 -30 3 -14
20 30 27 68 3 18 9 50 14 72 5 22 12 65 16 95 3 30 9 66 11 80 9 51 11 437 2
505 -5 39 -11 93 -15 120 -3 28 -8 53 -10 56 -2 4 -6 28 -9 53 -3 26 -10 59
-16 74 -6 15 -10 28 -10 30 1 1 1 3 0 5 0 1 -3 14 -5 28 -5 32 -71 236 -81
252 -4 7 -8 17 -9 23 -2 12 -14 39 -67 153 -28 60 -134 250 -147 261 -3 3 -23
32 -45 64 -22 33 -44 64 -50 70 -6 6 -22 27 -35 46 -14 19 -37 49 -52 65 -55
61 -111 122 -171 185 -91 95 -146 164 -207 260 -63 98 -140 248 -156 305 -1 6
-12 35 -22 65 -11 30 -23 69 -28 85 -4 17 -8 35 -10 40 -23 85 -66 319 -67
368 0 15 -3 27 -6 27 -3 0 -7 15 -8 33 0 17 -4 52 -7 77 -11 84 -19 235 -19
343 0 59 -1 107 -2 107 -1 0 -8 -13 -14 -29z"/>
<path d="M5675 7474 c-22 -8 -49 -18 -60 -24 -34 -16 -83 -35 -102 -39 -14 -3
116 -57 162 -68 29 -6 205 -10 205 -3 0 3 16 6 36 8 20 1 41 5 48 9 6 4 19 6
29 5 12 -2 17 4 17 22 0 70 -221 129 -335 90z"/>
<path d="M6910 7291 c-8 -3 -25 -12 -36 -20 l-22 -14 32 -66 c42 -87 94 -177
113 -197 15 -15 18 -13 33 16 21 40 25 133 9 173 -13 31 -67 90 -96 105 -10 5
-25 7 -33 3z"/>
</g>
</svg>
